<?xml version="1.0" encoding="UTF-8"?>
<svg id="Layer_1" data-name="Layer 1" xmlns="http://www.w3.org/2000/svg" viewBox="0 0 381 218">
  <defs>
    <style>
      .cls-1 {
        letter-spacing: .03em;
      }

      .cls-2 {
        fill: #fff;
      }

      .cls-3 {
        font-family: MyriadPro-Regular, 'Myriad Pro';
        font-size: 12px;
      }

      .cls-4 {
        letter-spacing: 0em;
      }

      .cls-5 {
        letter-spacing: .02em;
      }

      .cls-6 {
        letter-spacing: 0em;
      }

      .cls-7 {
        letter-spacing: 0em;
      }

      .cls-8 {
        letter-spacing: -.01em;
      }

      .cls-9 {
        letter-spacing: 0em;
      }

      .cls-10 {
        fill: none;
        stroke: #000;
        stroke-miterlimit: 10;
        stroke-width: 2px;
      }

      .cls-11 {
        letter-spacing: 0em;
      }

      .cls-12 {
        letter-spacing: 0em;
      }

      .cls-13 {
        letter-spacing: .01em;
      }

      .cls-14 {
        letter-spacing: -.02em;
      }

      .cls-15 {
        letter-spacing: 0em;
      }

      .cls-16 {
        letter-spacing: 0em;
      }

      .cls-17 {
        letter-spacing: -.02em;
      }

      .cls-18 {
        letter-spacing: -.01em;
      }

      .cls-19 {
        letter-spacing: -.01em;
      }

      .cls-20 {
        letter-spacing: 0em;
      }
    </style>
  </defs>
  <g>
    <rect class="cls-2" x="288.5" y=".5" width="92" height="73"/>
    <path d="m380,1v72h-91V1h91m1-1h-93v74h93V0h0Z"/>
  </g>
  <text class="cls-3" transform="translate(293.52 13.22)"><tspan class="cls-11" x="0" y="0">T</tspan><tspan x="5.88" y="0">he </tspan><tspan class="cls-17" x="21.1" y="0">P</tspan><tspan x="27.18" y="0">e</tspan><tspan class="cls-1" x="33.19" y="0">r</tspan><tspan class="cls-8" x="37.47" y="0">f</tspan><tspan x="40.82" y="0">e</tspan><tspan class="cls-13" x="46.83" y="0">c</tspan><tspan x="52.37" y="0">t </tspan><tspan class="cls-14" x="0" y="14.4">P</tspan><tspan class="cls-18" x="6.19" y="14.4">r</tspan><tspan x="10" y="14.4">o</tspan><tspan class="cls-12" x="16.58" y="14.4">g</tspan><tspan class="cls-7" x="23.22" y="14.4">r</tspan><tspan x="27.08" y="14.4">amming </tspan><tspan class="cls-14" x="0" y="28.8">P</tspan><tspan class="cls-18" x="6.19" y="28.8">r</tspan><tspan x="10" y="28.8">o</tspan><tspan class="cls-12" x="16.58" y="28.8">c</tspan><tspan x="21.89" y="28.8">ess</tspan></text>
  <text class="cls-3" transform="translate(343.36 65.95)"><tspan x="0" y="0">desi</tspan><tspan class="cls-12" x="20.34" y="0">g</tspan><tspan x="26.98" y="0">n</tspan></text>
  <g>
    <rect class="cls-2" x="131.5" y="144.5" width="92" height="73"/>
    <path d="m223,145v72h-91v-72h91m1-1h-93v74h93v-74h0Z"/>
  </g>
  <text class="cls-3" transform="translate(136.52 157.22)"><tspan class="cls-19" x="0" y="0">C</tspan><tspan x="6.83" y="0">ompone</tspan><tspan class="cls-4" x="49.51" y="0">n</tspan><tspan x="56.12" y="0">t </tspan><tspan x="0" y="14.4">thin</tspan><tspan class="cls-5" x="20.1" y="14.4">k</tspan><tspan x="25.93" y="14.4">ing</tspan></text>
  <text class="cls-3" transform="translate(158.32 209.95)"><tspan x="0" y="0">desi</tspan><tspan class="cls-12" x="20.34" y="0">g</tspan><tspan x="26.98" y="0">n </tspan><tspan class="cls-15" x="36.18" y="0">t</tspan><tspan x="40.08" y="0">opic</tspan></text>
  <g>
    <rect class="cls-2" x=".5" y="144.5" width="92" height="73"/>
    <path d="m92,145v72H1v-72h91m1-1H0v74h93v-74h0Z"/>
  </g>
  <text class="cls-3" transform="translate(5.52 157.22)"><tspan class="cls-9" x="0" y="0">S</tspan><tspan x="5.99" y="0">epa</tspan><tspan class="cls-20" x="24.61" y="0">r</tspan><tspan class="cls-6" x="28.48" y="0">a</tspan><tspan x="34.21" y="0">tion of </tspan><tspan class="cls-19" x="0" y="14.4">C</tspan><tspan x="6.83" y="14.4">on</tspan><tspan class="cls-12" x="20.08" y="14.4">c</tspan><tspan x="25.38" y="14.4">e</tspan><tspan class="cls-16" x="31.39" y="14.4">r</tspan><tspan x="35.36" y="14.4">ns</tspan></text>
  <text class="cls-3" transform="translate(27.32 209.95)"><tspan x="0" y="0">desi</tspan><tspan class="cls-12" x="20.34" y="0">g</tspan><tspan x="26.98" y="0">n </tspan><tspan class="cls-15" x="36.18" y="0">t</tspan><tspan x="40.08" y="0">opic</tspan></text>
  <g>
    <rect class="cls-2" x="288.5" y="144.5" width="92" height="73"/>
    <path d="m380,145v72h-91v-72h91m1-1h-93v74h93v-74h0Z"/>
  </g>
  <text class="cls-3" transform="translate(293.52 157.22)"><tspan class="cls-9" x="0" y="0">M</tspan><tspan x="9.72" y="0">ake a plan</tspan></text>
  <text class="cls-3" transform="translate(343.36 209.95)"><tspan x="0" y="0">desi</tspan><tspan class="cls-12" x="20.34" y="0">g</tspan><tspan x="26.98" y="0">n</tspan></text>
  <line class="cls-10" x1="334" y1="74" x2="334" y2="144"/>
  <line class="cls-10" x1="224" y1="181" x2="288" y2="181"/>
  <line class="cls-10" x1="93" y1="181" x2="131" y2="181"/>
</svg>